<?xml version="1.0" standalone="no"?>
<!DOCTYPE svg PUBLIC "-//W3C//DTD SVG 20010904//EN"
 "http://www.w3.org/TR/2001/REC-SVG-20010904/DTD/svg10.dtd">
<svg version="1.0" xmlns="http://www.w3.org/2000/svg"
 width="512.000000pt" height="512.000000pt" viewBox="0 0 512.000000 512.000000"
 preserveAspectRatio="xMidYMid meet">

<g transform="translate(0.000000,512.000000) scale(0.100000,-0.100000)"
fill="#000000" stroke="none">
<path d="M2609 4670 c-292 -72 -526 -301 -611 -597 -30 -105 -32 -293 -4 -403
23 -91 60 -177 88 -207 45 -48 129 -13 130 53 0 16 -11 54 -26 84 -45 98 -59
173 -53 295 11 256 137 459 352 565 111 55 189 73 315 73 127 0 205 -18 315
-73 215 -108 341 -309 353 -561 8 -192 -46 -347 -172 -487 -36 -40 -67 -80
-67 -90 -3 -40 4 -58 28 -80 52 -47 109 -11 208 128 62 89 95 152 123 240 68
210 50 430 -51 624 -113 218 -317 380 -547 436 -111 26 -274 26 -381 0z"/>
<path d="M2745 4375 c-16 -15 -25 -36 -25 -55 0 -22 -5 -30 -17 -30 -29 0
-117 -45 -155 -79 -20 -18 -48 -55 -62 -83 -67 -135 2 -266 167 -317 l62 -19
3 -101 3 -102 -38 16 c-21 9 -55 33 -75 55 -30 32 -44 40 -73 40 -70 0 -100
-76 -53 -135 31 -40 130 -101 186 -115 37 -10 50 -19 62 -44 28 -57 107 -61
138 -6 11 20 32 35 61 45 139 47 232 154 231 266 -1 88 -80 176 -188 209 -35
11 -70 20 -78 20 -11 0 -14 21 -14 100 0 87 2 100 17 100 32 0 98 -40 115 -70
33 -59 104 -58 137 1 41 74 -57 180 -201 215 -60 15 -68 20 -68 41 0 34 -42
73 -80 73 -19 0 -40 -9 -55 -25z m-25 -331 l0 -96 -27 7 c-53 13 -73 33 -73
73 0 46 22 79 64 98 17 7 32 13 34 14 1 0 2 -43 2 -96z m243 -275 c30 -16 37
-28 37 -65 0 -39 -33 -82 -76 -100 -19 -8 -36 -14 -39 -14 -3 0 -5 43 -5 95
l0 95 31 0 c17 0 40 -5 52 -11z"/>
<path d="M1690 3626 c-41 -13 -100 -33 -130 -46 -52 -21 -60 -21 -145 -10
-112 15 -332 16 -445 0 -191 -25 -381 -88 -473 -156 -133 -97 -93 -235 135
-470 l98 -101 -34 -90 c-19 -49 -45 -128 -56 -175 l-22 -86 -41 -6 c-77 -12
-194 -57 -248 -94 -92 -65 -116 -117 -126 -273 -14 -234 56 -496 168 -623 85
-96 154 -121 379 -138 l155 -11 80 -74 c44 -41 117 -102 163 -135 45 -33 82
-62 82 -64 0 -2 -27 -120 -60 -261 -33 -141 -58 -265 -54 -275 3 -9 17 -27 31
-38 25 -19 39 -20 458 -20 407 0 434 1 456 19 14 11 41 66 70 142 l46 124 89
-3 c49 -2 127 1 173 8 45 6 85 9 88 6 3 -3 -6 -53 -21 -112 -30 -119 -26 -152
20 -173 32 -14 827 -16 854 -1 37 20 298 398 452 655 134 224 218 403 288 618
71 215 100 343 100 440 0 59 -3 71 -25 92 -14 15 -35 25 -52 25 -54 -1 -83
-42 -83 -118 0 -67 -23 -181 -55 -272 -14 -41 -37 -111 -50 -156 -32 -109 -55
-164 -119 -292 -104 -208 -250 -444 -445 -719 l-86 -123 -317 0 c-248 0 -318
3 -318 13 0 6 11 55 25 107 31 121 31 145 -1 177 -29 29 -28 29 -239 -2 -102
-16 -135 -17 -227 -7 -161 17 -150 26 -232 -190 l-38 -98 -329 0 c-256 0 -329
3 -329 13 0 6 23 113 52 236 38 168 49 229 42 249 -6 16 -47 52 -109 96 -55
39 -145 116 -200 171 l-100 99 -180 12 c-99 6 -200 17 -223 23 -134 37 -222
232 -222 490 0 138 13 204 47 231 37 29 118 56 208 70 137 20 139 22 180 199
15 63 45 155 67 205 22 50 43 108 45 128 5 34 1 40 -48 85 -98 87 -236 228
-258 263 -38 63 -27 87 58 130 163 82 522 112 773 64 l87 -16 83 35 c46 20
119 45 163 57 96 26 130 55 121 103 -15 72 -64 83 -196 43z"/>
<path d="M2196 3310 c-96 -12 -113 -17 -136 -42 -28 -30 -26 -79 4 -107 29
-27 39 -28 175 -13 316 36 610 -14 788 -134 79 -53 121 -58 152 -18 52 66 10
124 -144 198 -178 87 -319 116 -585 121 -102 2 -216 0 -254 -5z"/>
<path d="M3564 3287 c-19 -17 -27 -33 -27 -56 0 -27 14 -45 107 -133 60 -56
137 -138 173 -182 72 -90 102 -109 145 -94 60 21 64 85 11 155 -67 89 -157
186 -242 260 -93 81 -121 90 -167 50z"/>
<path d="M4746 3247 c-23 -23 -24 -29 -19 -133 8 -165 -19 -233 -108 -268 -23
-9 -42 -16 -43 -14 -1 2 -8 47 -14 100 -26 211 -108 328 -231 328 -89 0 -179
-68 -202 -152 -36 -134 30 -286 159 -368 l44 -27 -29 -20 c-57 -41 -201 -74
-288 -67 -78 7 -125 -23 -125 -80 0 -57 38 -86 113 -86 62 0 210 27 284 51 75
25 172 86 201 126 19 26 30 31 84 37 103 11 156 33 213 90 64 62 95 137 102
247 9 117 -4 207 -32 235 -32 31 -78 32 -109 1z m-393 -155 c25 -27 46 -97 53
-173 5 -49 4 -69 -5 -69 -21 0 -94 75 -112 115 -24 52 -24 86 2 119 24 31 40
33 62 8z"/>
<path d="M1225 2641 c-76 -34 -116 -107 -100 -181 4 -18 24 -49 45 -70 71 -71
149 -71 220 0 60 60 65 138 13 201 -27 31 -93 69 -123 69 -8 0 -33 -9 -55 -19z"/>
</g>
</svg>
